<svg width="22" height="17" viewBox="0 0 22 17" fill="none" xmlns="http://www.w3.org/2000/svg">
<path d="M11 2.33952C8.64418 0.488703 5.02125 0.555845 2.75736 2.54094C0.414214 4.59553 0.414214 7.92668 2.75736 9.98126L9.58579 15.9688C10.3668 16.6536 11.6332 16.6536 12.4142 15.9688L19.2426 9.98126C21.5858 7.92668 21.5858 4.59553 19.2426 2.54094C16.9787 0.555845 13.3558 0.488703 11 2.33952ZM9.82843 3.781L10.2929 4.18826C10.6834 4.53069 11.3166 4.53069 11.7071 4.18826L12.1716 3.781C13.7337 2.41127 16.2663 2.41127 17.8284 3.781C19.3905 5.15072 19.3905 7.37148 17.8284 8.74121L11 14.7287L4.17157 8.74121C2.60948 7.37148 2.60948 5.15072 4.17157 3.781C5.73367 2.41127 8.26633 2.41127 9.82843 3.781Z" fill="#6133B4" stroke="#6133B4" stroke-linecap="round" stroke-linejoin="round"/>
</svg>
