<svg width="56" height="55" viewBox="0 0 56 55" fill="none" xmlns="http://www.w3.org/2000/svg">
<path d="M42.6672 10.2068C40.8899 10.2068 39.4488 11.6478 39.4488 13.4252C39.4488 15.2027 40.8899 16.6436 42.6672 16.6436C44.4447 16.6436 45.8856 15.2027 45.8856 13.4252C45.8856 11.6478 44.4447 10.2068 42.6672 10.2068ZM28.359 14.334C20.9044 14.334 14.8394 20.3989 14.8394 27.8535C14.8394 35.308 20.9044 41.3729 28.359 41.3729C35.8136 41.3729 41.8783 35.308 41.8783 27.8535C41.8783 20.3989 35.8136 14.334 28.359 14.334ZM28.359 36.5138C23.5837 36.5138 19.6987 32.6289 19.6987 27.8535C19.6987 23.0782 23.5837 19.1935 28.359 19.1935C33.1344 19.1935 37.019 23.0782 37.019 27.8535C37.019 32.6289 33.1344 36.5138 28.359 36.5138ZM55.6383 16.6173C55.6383 7.51052 48.2554 0.12793 39.148 0.12793H17.3839C8.27669 0.12793 0.893616 7.51052 0.893616 16.6173V38.3832C0.893616 47.49 8.27669 54.8726 17.3839 54.8726H39.148C48.2554 54.8726 55.6383 47.49 55.6383 38.3832V16.6173ZM50.4737 38.3833C50.4737 44.6377 45.4031 49.708 39.148 49.708H17.3839C11.129 49.708 6.05821 44.6377 6.05821 38.3833V16.6173C6.05821 10.3628 11.129 5.29252 17.3839 5.29252H39.148C45.4031 5.29252 50.4737 10.3628 50.4737 16.6173V38.3833H50.4737Z" fill="white"/>
</svg>
