<svg width="403" height="132" viewBox="0 0 403 132" fill="none" xmlns="http://www.w3.org/2000/svg">
<path d="M162.419 87.2154H160.696C158.259 87.2154 156.421 85.9642 155.189 83.4822L152.466 76.4082H135.093C135.091 75.6534 135.238 74.9054 135.527 74.2073C135.816 73.5091 136.241 72.8745 136.777 72.3398C137.313 71.8051 137.951 71.3809 138.652 71.0914C139.354 70.8019 140.106 70.6529 140.866 70.6529H150.165L142.677 51.4935L130.192 83.4822C128.96 85.9642 127.149 87.2154 124.746 87.2154H122.99L137.517 49.9786C137.808 49.2292 138.251 48.5469 138.818 47.9735C139.384 47.4002 140.063 46.9479 140.812 46.6445L142.391 46.2184H142.711H143.024L144.603 46.6445C145.356 46.9426 146.039 47.3929 146.607 47.9668C147.175 48.5408 147.617 49.2259 147.905 49.9786L162.419 87.2154Z" fill="white" stroke="white" stroke-width="0.86" stroke-miterlimit="10"/>
<path d="M198.961 86.9854C198.069 86.8434 197.123 86.1062 196.115 84.8213L186.585 71.762L177.054 84.8213C176.523 85.5593 175.821 86.1597 175.007 86.5716C174.193 86.9836 173.291 87.1951 172.378 87.1883C171.159 87.1775 169.972 86.8002 168.974 86.1062L183.038 66.8859L169.028 47.6386C170.027 46.9446 171.214 46.5673 172.432 46.5565C173.038 46.597 173.64 46.6738 174.236 46.7864C175.155 46.9285 176.108 47.6386 177.109 48.9235L186.639 61.9828L196.17 48.9235C196.703 48.1853 197.406 47.585 198.221 47.1731C199.036 46.7612 199.939 46.5498 200.853 46.5565C202.072 46.5673 203.259 46.9446 204.257 47.6386L190.254 66.8859L204.182 86.1333C203.184 86.8273 201.997 87.2045 200.778 87.2154C200.168 87.1815 199.561 87.1046 198.961 86.9854Z" fill="white" stroke="white" stroke-width="0.86" stroke-miterlimit="10"/>
<path d="M210.758 81.2302C207.864 78.3638 205.891 74.7095 205.087 70.729C204.283 66.7486 204.685 62.6207 206.242 58.8672C207.799 55.1136 210.441 51.9028 213.834 49.6406C217.227 47.3783 221.219 46.1663 225.306 46.1575C230.748 46.1754 235.963 48.3331 239.809 52.159C243.655 55.9849 245.82 61.1678 245.83 66.5749C245.888 69.2977 245.383 72.0033 244.345 74.5242C243.308 77.0451 241.76 79.3275 239.799 81.2302C235.942 85.0453 230.721 87.1873 225.279 87.1873C219.836 87.1873 214.615 85.0453 210.758 81.2302ZM235.694 76.6652C237.709 74.6563 239.08 72.0991 239.634 69.3166C240.187 66.5341 239.898 63.6511 238.804 61.0316C237.709 58.4121 235.857 56.1736 233.483 54.5988C231.108 53.0241 228.317 52.1836 225.462 52.1836C222.607 52.1836 219.816 53.0241 217.442 54.5988C215.067 56.1736 213.216 58.4121 212.121 61.0316C211.026 63.6511 210.738 66.5341 211.291 69.3166C211.844 72.0991 213.215 74.6563 215.231 76.6652C217.95 79.3504 221.628 80.8576 225.462 80.8576C229.296 80.8576 232.975 79.3504 235.694 76.6652Z" fill="white" stroke="white" stroke-width="0.86" stroke-miterlimit="10"/>
<path d="M252.434 87.1883V46.1845C253.196 46.1827 253.951 46.3306 254.655 46.6195C255.36 46.9084 256 47.3328 256.539 47.8682C257.078 48.4036 257.505 49.0395 257.796 49.7394C258.087 50.4393 258.235 51.1894 258.233 51.9466V81.3992H273.843C274.605 81.3974 275.36 81.5453 276.065 81.8342C276.769 82.1231 277.409 82.5475 277.948 83.0829C278.487 83.6183 278.914 84.2542 279.205 84.9541C279.496 85.654 279.645 86.4041 279.643 87.1613L252.434 87.1883Z" fill="white" stroke="white" stroke-width="0.86" stroke-miterlimit="10"/>
<path d="M284.204 81.2302C281.309 78.363 279.335 74.7074 278.532 70.7257C277.728 66.744 278.131 62.615 279.69 58.8609C281.249 55.1068 283.893 51.8961 287.288 49.6349C290.683 47.3738 294.678 46.1636 298.765 46.1575C304.208 46.1736 309.422 48.331 313.268 52.1575C317.113 55.9839 319.276 61.1679 319.283 66.5749C319.34 69.2971 318.835 72.002 317.799 74.5227C316.763 77.0434 315.218 79.3262 313.258 81.2302C309.4 85.0457 304.178 87.1879 298.735 87.1879C293.291 87.1879 288.069 85.0457 284.211 81.2302H284.204ZM309.147 76.6652C311.164 74.6558 312.537 72.0975 313.092 69.3133C313.647 66.5291 313.359 63.644 312.264 61.0225C311.169 58.401 309.316 56.1607 306.941 54.5846C304.565 53.0085 301.772 52.1673 298.915 52.1673C296.058 52.1673 293.265 53.0085 290.889 54.5846C288.513 56.1607 286.661 58.401 285.566 61.0225C284.471 63.644 284.183 66.5291 284.738 69.3133C285.293 72.0975 286.666 74.6558 288.683 76.6652C291.403 79.3504 295.081 80.8576 298.915 80.8576C302.749 80.8576 306.427 79.3504 309.147 76.6652Z" fill="white" stroke="white" stroke-width="0.86" stroke-miterlimit="10"/>
<path d="M336.989 51.9195H321.291C321.291 51.1647 321.441 50.4173 321.732 49.7202C322.024 49.023 322.451 48.3899 322.989 47.8571C323.527 47.3243 324.166 46.9023 324.869 46.6153C325.572 46.3282 326.324 46.1819 327.084 46.1845H358.487C358.497 46.9424 358.35 47.6941 358.053 48.3925C357.757 49.0908 357.318 49.7206 356.765 50.2423C356.234 50.783 355.598 51.211 354.896 51.5005C354.194 51.79 353.44 51.9348 352.68 51.9263H342.789V81.3992C342.791 82.1564 342.642 82.9065 342.351 83.6064C342.06 84.3063 341.633 84.9422 341.094 85.4776C340.555 86.013 339.915 86.4374 339.211 86.7263C338.506 87.0152 337.751 87.163 336.989 87.1613V51.9195Z" fill="white" stroke="white" stroke-width="0.86" stroke-miterlimit="10"/>
<path d="M380.788 51.9196H365.09C365.094 50.3961 365.706 48.9364 366.792 47.8611C367.879 46.7858 369.35 46.1828 370.883 46.1846H402.286C402.297 46.9424 402.149 47.6941 401.853 48.3925C401.556 49.0908 401.117 49.7207 400.564 50.2423C400.033 50.783 399.398 51.2111 398.696 51.5005C397.994 51.79 397.24 51.9348 396.48 51.9263H386.582V81.3993C386.583 82.1564 386.434 82.9065 386.144 83.6064C385.853 84.3063 385.426 84.9422 384.887 85.4776C384.348 86.013 383.708 86.4374 383.003 86.7263C382.299 87.0153 381.544 87.1631 380.782 87.1613L380.788 51.9196Z" fill="white" stroke="white" stroke-width="0.86" stroke-miterlimit="10"/>
<path d="M23.4305 38.2178C24.3593 38.2098 25.2696 38.4763 26.0456 38.9836C26.8216 39.4908 27.4283 40.2159 27.7884 41.0665C28.1486 41.9172 28.246 42.855 28.0683 43.7608C27.8905 44.6666 27.4457 45.4994 26.7903 46.1534C26.1349 46.8074 25.2985 47.253 24.3876 47.4335C23.4766 47.6141 22.5322 47.5214 21.6743 47.1674C20.8165 46.8133 20.084 46.2138 19.57 45.4451C19.056 44.6764 18.7837 43.7733 18.7878 42.8504C18.7878 41.6253 19.2762 40.45 20.1463 39.5818C21.0164 38.7136 22.1973 38.2232 23.4305 38.2178Z" fill="white"/>
<path d="M47.3723 3.55769C45.1803 8.29176 38.189 20.979 24.826 22.5616H24.7647C24.3835 22.7307 19.0056 24.9962 17.1404 25.9836C17.0794 26.0213 17.0076 26.0379 16.9361 26.031C16.2009 25.9295 11.5991 25.5643 10.9456 30.9071C10.9371 30.964 10.9137 31.0177 10.8775 31.0626C10.0606 31.7998 1.53765 39.7057 3.21909 44.5885C4.95499 49.7081 16.7115 53.2721 16.8817 53.333C17.0519 53.3939 38.0393 58.4052 45.7045 51.0877C45.7235 51.0697 45.7459 51.0556 45.7705 51.0463C45.795 51.037 45.8212 51.0327 45.8474 51.0336C46.9434 50.9051 60.3814 49.3361 68.6388 40.0573C68.7208 39.97 68.7734 39.8595 68.7893 39.7411C68.8051 39.6227 68.7835 39.5024 68.7273 39.3968C68.6712 39.2912 68.5833 39.2056 68.476 39.1518C68.3686 39.0981 68.2471 39.0789 68.1283 39.097C64.7245 39.6313 56.4535 40.5646 49.4962 37.9473C49.4514 37.9267 49.4134 37.8938 49.3868 37.8525C49.3601 37.8111 49.346 37.7631 49.346 37.714C49.346 37.6649 49.3601 37.6168 49.3868 37.5755C49.4134 37.5341 49.4514 37.5012 49.4962 37.4806C51.804 36.2227 61.5863 30.3863 66.9097 19.3086C66.9766 19.1667 66.9948 19.007 66.9616 18.8539C66.9285 18.7008 66.8457 18.5627 66.7261 18.4607C66.6064 18.3587 66.4564 18.2984 66.2991 18.2891C66.1417 18.2798 65.9856 18.322 65.8546 18.4091C61.3821 21.2631 50.5786 27.4985 43.7507 25.632C43.7093 25.6238 43.6706 25.6052 43.6386 25.5779C43.6065 25.5505 43.5821 25.5154 43.5677 25.476C43.5533 25.4365 43.5494 25.394 43.5564 25.3526C43.5635 25.3112 43.5812 25.2723 43.6078 25.2397C45.0305 23.3664 52.3622 13.134 48.9993 3.64561C48.9561 3.46915 48.8569 3.31121 48.7163 3.19516C48.5757 3.0791 48.4012 3.01111 48.2187 3.00125C48.0361 2.99139 47.8553 3.04017 47.7028 3.14039C47.5504 3.24061 47.4345 3.38693 47.3723 3.55769V3.55769Z" stroke="white" stroke-width="4.18" stroke-miterlimit="10"/>
<path d="M60.2384 29.054C64.7245 29.054 70.8308 31.5563 77.1618 35.6276" stroke="white" stroke-width="4.18" stroke-miterlimit="10"/>
<path d="M81.5186 48.9371C91.4983 65.8444 93.9626 81.2234 93.6903 82.8938C93.6813 82.9336 93.685 82.9751 93.7009 83.0127C93.7167 83.0503 93.744 83.082 93.7788 83.1035C105.508 92.0441 99.2248 112.461 97.448 117.48C97.4265 117.533 97.3877 117.577 97.3379 117.606C97.2881 117.634 97.2301 117.646 97.1731 117.638C97.116 117.63 97.0632 117.604 97.023 117.563C96.9828 117.522 96.9575 117.469 96.9511 117.412C95.8687 102.635 90.8856 98.1916 89.7488 97.3598C89.7204 97.338 89.6874 97.3226 89.6524 97.3149C89.6173 97.3071 89.5809 97.3071 89.5459 97.3148C89.5108 97.3226 89.4779 97.3379 89.4494 97.3597C89.4209 97.3815 89.3977 97.4092 89.3812 97.4409C68.5367 135.767 34.8057 129.633 25.1119 126.9C25.046 126.888 24.9878 126.85 24.9502 126.795C24.9125 126.739 24.8984 126.672 24.9111 126.606C24.9237 126.541 24.962 126.483 25.0176 126.445C25.0731 126.408 25.1413 126.394 25.2072 126.407C57.25 129.896 66.052 103.866 67.2433 99.693C67.2565 99.6456 67.255 99.5953 67.2389 99.5488C67.2228 99.5022 67.1928 99.4616 67.153 99.4323C67.1132 99.403 67.0654 99.3864 67.0159 99.3847C66.9664 99.3829 66.9175 99.3961 66.8757 99.4225C58.8701 103.683 49.4214 99.693 45.9768 97.9414C45.9254 97.9131 45.8857 97.8678 45.8644 97.8134C45.8431 97.759 45.8416 97.6989 45.8602 97.6435C45.8787 97.5882 45.9162 97.541 45.9661 97.5102C46.016 97.4794 46.0752 97.4668 46.1334 97.4748C64.1119 100.214 67.8696 84.517 68.0942 83.5025V83.4281C68.0942 83.4281 63.7443 65.6416 51.4023 59.7984C51.2732 59.7381 51.1323 59.7066 50.9896 59.7061C50.8468 59.7055 50.7057 59.7359 50.5761 59.7952C50.4464 59.8544 50.3313 59.9411 50.2389 60.0491C50.1464 60.1571 50.0789 60.2839 50.0408 60.4206C48.9312 64.2416 44.0639 76.4555 28.4203 70.5176C28.3301 70.5087 28.2471 70.4644 28.1896 70.3947C28.1322 70.3249 28.105 70.2354 28.114 70.1457C28.123 70.056 28.1675 69.9736 28.2378 69.9165C28.308 69.8594 28.3981 69.8324 28.4884 69.8414C32.3755 69.3274 43.2538 66.798 41.654 54.6247" stroke="white" stroke-width="4.18" stroke-miterlimit="10"/>
<path d="M81.3824 50.0394C82.8256 49.9718 92.8258 44.1286 103.051 55.1184C103.081 55.1563 103.124 55.1826 103.172 55.1927C103.219 55.2028 103.269 55.1961 103.313 55.1738C103.356 55.1514 103.39 55.1148 103.41 55.0702C103.429 55.0255 103.432 54.9756 103.418 54.929C101.873 50.0597 92.1519 35.2218 77.1618 35.6343" stroke="white" stroke-width="4.18" stroke-miterlimit="10"/>
<path d="M76.5287 34.5022C76.1153 34.5429 75.7225 34.7028 75.398 34.9626C75.0734 35.2224 74.8311 35.5709 74.7002 35.9659C74.5694 36.3609 74.5557 36.7854 74.6607 37.188C74.7658 37.5907 74.9852 37.9541 75.2923 38.2344C75.5994 38.5147 75.981 38.6997 76.3909 38.7671C76.8008 38.8344 77.2214 38.7813 77.6018 38.614C77.9822 38.4468 78.306 38.1726 78.534 37.8247C78.7619 37.4768 78.8843 37.0702 78.8863 36.654C78.857 36.0559 78.5926 35.4938 78.1507 35.0906C77.7089 34.6874 77.1257 34.4758 76.5287 34.5022Z" fill="white"/>
<path d="M83.1079 48.3011C82.8086 47.3191 81.6428 47.1009 80.5086 47.7774C79.3743 48.4539 78.6969 49.7851 78.9332 50.7671C79.1695 51.7491 80.3983 51.9673 81.5483 51.2908C82.6983 50.6143 83.423 49.2832 83.1079 48.3011Z" fill="white"/>
</svg>
