<svg width="255" height="175" viewBox="0 0 255 175" fill="none" xmlns="http://www.w3.org/2000/svg">
<g clip-path="url(#clip0_173_528)">
<path d="M203.876 86.8794C203.876 86.8794 225.728 109.733 242.054 91.9267C242.054 91.9267 253.252 77.935 227.764 66.0863C227.789 66.1111 258.298 68.5107 254.695 46.5839C254.695 46.5839 248.354 29.5721 225.249 35.5544C225.249 35.5544 250.745 15.4563 231.401 3.48347C212.056 -8.48934 196.224 22.117 195.631 24.3924C195.631 24.3924 241.724 45.318 203.876 86.8794Z" fill="#FFE660"/>
<path d="M200.776 25.104C200.776 25.104 209.45 10.2683 218.851 9.01066C228.251 7.75298 230.345 15.9031 229.644 19.5603C228.943 23.2175 214.142 38.4338 214.142 38.4338C209.442 30.5237 200.776 25.104 200.776 25.104Z" fill="#FEF4A1"/>
<path d="M217.21 44.8216C217.21 44.8216 232.794 37.6478 241.213 42.0249C249.632 46.4019 246.697 54.2873 244.033 56.9185C241.37 59.5497 220.731 61.4031 220.731 61.4031C220.476 55.7189 219.287 50.1161 217.21 44.8216Z" fill="#FEF4A1"/>
<path d="M219.543 68.8416C219.543 68.8416 234.485 73.078 237.123 80.8475C239.762 88.617 233.248 91.7695 230.04 91.7861C226.833 91.8026 211.396 81.0875 211.396 81.0875C215.124 77.7832 217.932 73.5632 219.543 68.8416Z" fill="#FEF4A1"/>
<path d="M201.403 88.3274C198.418 90.0733 193.396 91.7281 188.209 92.4645C188.209 92.4645 189.859 105.629 185.29 115.525C185.29 115.525 184.35 137.865 175.305 138.9C166.259 139.934 163.439 131.717 157.346 116.468C157.346 116.468 156.727 116.253 156.521 116.559C156.315 116.865 153.082 134.448 146.552 135.077C140.021 135.706 140.153 125.462 139.897 116.468C139.897 116.468 118.929 116.385 114.492 114.954C114.492 114.954 116.026 131.502 106.073 133.157C96.1208 134.812 96.8464 113.845 96.8464 113.845C96.8464 113.845 92.1793 113.845 90.8353 113.638C90.8353 113.638 91.0661 133.761 78.6315 133.571C66.1969 133.381 61.4968 114.226 61.6205 84.2317C61.6205 84.2317 27.2522 103.519 72.9667 148.374C72.9667 148.374 85.8548 166.271 46.8441 174.504C46.8441 174.504 19.1054 181.123 5.22781 149.011C-7.56135 119.405 7.0089 96.2128 7.0089 96.2128C7.0089 96.2128 14.5867 78.6052 27.1285 72.3913C32.6532 69.669 32.8016 69.0816 61.2 70.24C61.2 70.24 82.9935 58.9622 98.5615 59.26C98.5615 59.26 118.351 56.4468 131.8 57.3239C131.8 57.3239 129.879 36.5307 154.954 23.9953C154.954 23.9953 171.973 13.3132 194.237 21.8771C200.572 24.3379 206.191 28.3541 210.579 33.5581C214.967 38.7621 217.984 44.9875 219.354 51.6643C220.986 59.3097 225.274 74.3688 201.403 88.3274Z" fill="#FFF8CA"/>
<path d="M49.2025 79.4823C49.2025 79.4823 18.3303 114.069 60.293 147.943C60.293 147.943 67.137 157.831 55.0404 164.972C42.9439 172.112 16.607 155.241 11.1071 124.428C5.60714 93.6147 36.0999 79.383 36.0999 79.383C36.0999 79.383 47.5203 75.1797 49.2025 79.4823Z" fill="#FEF4A1"/>
<path d="M188.209 92.4232C188.209 92.4232 188.91 100.035 188.325 102.807C187.797 105.29 147.302 110.254 133.655 93.1265C133.655 93.1265 147.179 87.9633 145.834 85.6135C145.826 85.6135 176.88 96.1797 188.209 92.4232Z" fill="#FEF4A1"/>
<path d="M164.872 53.8936C164.872 53.8936 154.262 52.5839 148.77 58.2762" stroke="#1D1D1B" stroke-width="5" stroke-miterlimit="10" stroke-linecap="round"/>
<path d="M204.154 53.7652C204.154 53.7652 194.671 48.7834 187.524 52.1902" stroke="#1D1D1B" stroke-width="5" stroke-miterlimit="10" stroke-linecap="round"/>
<path d="M170.466 76.3201C170.466 78.1519 172.675 82.312 177.033 81.9525C181.392 81.5929 182.151 76.3201 182.151 76.3201" stroke="#1D1D1B" stroke-width="3" stroke-miterlimit="10" stroke-linecap="round"/>
<path d="M188.049 92.7847C188.049 92.7847 188.742 100.306 188.164 103.053C187.642 105.506 147.603 110.411 134.111 93.4796C134.111 93.4796 147.481 88.3863 146.152 86.0645C146.152 86.0645 176.856 96.5045 188.049 92.7847Z" fill="#EA5669"/>
<path d="M105.38 59.7068C105.299 58.2761 114.413 58.8892 132.496 58.3333C132.542 58.3332 132.588 58.3441 132.628 58.3653C132.669 58.3865 132.704 58.4173 132.731 58.455C132.757 58.4928 132.774 58.5363 132.78 58.5821C132.786 58.6278 132.781 58.6743 132.765 58.7176C131.208 62.9852 119.093 101.377 188.049 99.0308C188.087 99.0297 188.124 99.036 188.159 99.0494C188.194 99.0628 188.226 99.083 188.254 99.1088C188.281 99.1346 188.303 99.1655 188.318 99.1998C188.333 99.2342 188.342 99.2712 188.343 99.3087C188.343 100.985 188.302 109.659 185.318 115.226C185.315 115.253 185.315 115.281 185.318 115.308C184.984 117.27 185.171 117.352 184.862 119.461C184.853 119.511 184.833 119.559 184.801 119.599C184.77 119.639 184.729 119.67 184.682 119.69C183.125 120.238 170.089 124.595 159.017 120.156C158.406 119.911 158.047 116.992 157.46 116.51C157.351 116.454 157.228 116.431 157.107 116.444C156.985 116.457 156.87 116.506 156.775 116.583C156.775 116.583 156.213 119.788 155.96 119.911C155.145 120.352 142.443 119.747 140.584 119.371C140.522 119.362 140.466 119.33 140.425 119.282C140.385 119.234 140.363 119.173 140.364 119.11C140.364 118.423 140.241 117.475 140.233 116.853C140.236 116.817 140.23 116.781 140.218 116.747C140.205 116.713 140.185 116.683 140.16 116.657C140.134 116.632 140.104 116.612 140.07 116.599C140.036 116.586 140 116.581 139.964 116.583C132.811 116.68 125.658 116.377 118.539 115.676C111.019 97.903 106.569 78.9765 105.38 59.7068Z" fill="#EE727D"/>
<path d="M147.228 86.1927C147.228 86.1927 125.377 109.038 109.05 91.2317C109.05 91.2317 97.8524 77.2399 123.348 65.3995C123.348 65.3995 92.773 67.7908 96.4094 45.8641C96.4094 45.8641 102.75 28.8522 125.863 34.8345C125.863 34.8345 100.367 14.7364 119.704 2.76357C139.04 -9.20924 154.971 21.422 155.589 23.6974C155.589 23.6974 109.388 44.6064 147.228 86.1927Z" fill="#FFE660"/>
<path d="M143.08 81.4929C143.08 81.4929 133.185 92.9196 123.695 92.2494C114.204 91.5791 113.8 83.1477 115.234 79.7305C116.669 76.3132 133.721 64.2825 133.721 64.2825C136.632 71.7127 143.08 81.4929 143.08 81.4929Z" fill="#FEF4A1"/>
<path d="M132.707 59.8972C132.707 59.8972 115.531 64.3156 108.374 56.9929C101.217 49.6702 107.013 42.0165 110.32 40.8085C117.296 38.2435 135.799 41.5035 135.799 41.5035C132.196 46.8321 132.707 59.8972 132.707 59.8972Z" fill="#FEF4A1"/>
<path d="M138.388 37.6808C138.388 37.6808 124.874 29.7376 122.004 19.8168C119.184 10.0614 130.621 7.52126 133.919 8.73757C140.895 11.3191 151.235 26.1135 151.235 26.1135C149.05 26.9657 138.388 37.6808 138.388 37.6808Z" fill="#FEF4A1"/>
</g>
<defs>
<clipPath id="clip0_173_528">
<rect width="255" height="175" fill="white" transform="matrix(-1 0 0 1 255 0)"/>
</clipPath>
</defs>
</svg>
