<svg width="249" height="170" viewBox="0 0 249 170" fill="none" xmlns="http://www.w3.org/2000/svg">
<g clip-path="url(#clip0_173_551)">
<path d="M49.9208 84.3972C49.9208 84.3972 28.5837 106.598 12.6412 89.3002C12.6412 89.3002 1.70698 75.7083 26.5949 64.1981C26.5707 64.2222 -3.22069 66.5532 0.297922 45.253C0.297922 45.253 6.48971 28.7272 29.0507 34.5385C29.0507 34.5385 4.15471 15.0147 23.0441 3.38394C41.9335 -8.2468 57.3928 21.4851 57.9725 23.6955C57.9725 23.6955 12.9633 44.0232 49.9208 84.3972Z" fill="#871D6B"/>
<path d="M52.9482 24.3868C52.9482 24.3868 44.4778 9.97495 35.2988 8.75321C26.1198 7.53146 24.0747 15.4487 24.7591 19.0014C25.4435 22.5542 39.8964 37.3357 39.8964 37.3357C44.4858 29.6516 52.9482 24.3868 52.9482 24.3868Z" fill="#D487B8"/>
<path d="M36.9011 43.5409C36.9011 43.5409 21.6833 36.5721 13.4625 40.8241C5.24167 45.0761 8.10809 52.7361 10.7088 55.2922C13.3095 57.8482 33.463 59.6487 33.463 59.6487C33.7114 54.1269 34.8731 48.6841 36.9011 43.5409Z" fill="#D487B8"/>
<path d="M34.6225 66.8747C34.6225 66.8747 20.0327 70.9901 17.4562 78.5376C14.8796 86.0851 21.2405 89.1475 24.3726 89.1636C27.5047 89.1797 42.5776 78.7707 42.5776 78.7707C38.9377 75.5608 36.1963 71.4614 34.6225 66.8747Z" fill="#D487B8"/>
<path d="M52.3363 85.8038C55.2511 87.4998 60.1546 89.1073 65.2191 89.8227C65.2191 89.8227 63.6088 102.611 68.0694 112.224C68.0694 112.224 68.9873 133.926 77.8201 134.931C86.6529 135.936 89.4065 127.954 95.3568 113.14C95.3568 113.14 95.9607 112.931 96.162 113.229C96.3633 113.526 99.5195 130.607 105.897 131.217C112.273 131.828 112.145 121.878 112.394 113.14C112.394 113.14 132.87 113.06 137.202 111.67C137.202 111.67 135.704 127.745 145.422 129.353C155.141 130.96 154.432 110.592 154.432 110.592C154.432 110.592 158.99 110.592 160.302 110.392C160.302 110.392 160.077 129.939 172.219 129.755C184.361 129.57 188.95 110.962 188.829 81.8251C188.829 81.8251 222.389 100.561 177.75 144.134C177.75 144.134 165.165 161.52 203.258 169.518C203.258 169.518 230.344 175.948 243.895 144.753C256.383 115.994 242.156 93.4638 242.156 93.4638C242.156 93.4638 234.757 76.3594 222.51 70.3229C217.115 67.6785 216.97 67.1078 189.24 68.2331C189.24 68.2331 167.959 57.2776 152.758 57.5669C152.758 57.5669 133.433 54.8341 120.301 55.6861C120.301 55.6861 122.177 35.487 97.6918 23.3097C97.6918 23.3097 81.073 12.9329 59.3333 21.252C53.1471 23.6425 47.6604 27.544 43.3757 32.5993C39.091 37.6546 36.1451 43.7021 34.8077 50.1882C33.2135 57.6151 29.0266 72.244 52.3363 85.8038Z" fill="#E3B6D6"/>
<path d="M200.955 77.2113C200.955 77.2113 231.101 110.809 190.126 143.716C190.126 143.716 183.443 153.322 195.255 160.258C207.067 167.195 232.784 150.806 238.154 120.873C243.525 90.9399 213.75 77.1149 213.75 77.1149C213.75 77.1149 202.598 73.0317 200.955 77.2113Z" fill="#D487B8"/>
<path d="M65.2191 89.7825C65.2191 89.7825 64.5347 97.1773 65.1064 99.87C65.6217 102.281 105.164 107.104 118.489 90.4657C118.489 90.4657 105.285 85.4501 106.597 83.1674C106.605 83.1674 76.2822 93.4317 65.2191 89.7825Z" fill="#D487B8"/>
<path d="M65.2358 89.6937C65.2358 89.6937 64.554 97.0644 65.1235 99.7563C65.6369 102.16 105.031 106.967 118.306 90.3747C118.306 90.3747 105.151 85.3834 106.459 83.1081C106.459 83.1081 76.2494 93.339 65.2358 89.6937Z" fill="#8EA7D7"/>
<path d="M146.574 57.2786C146.655 55.8765 137.687 56.4774 119.895 55.9326C119.85 55.9325 119.805 55.9432 119.765 55.964C119.725 55.9848 119.69 56.0149 119.664 56.0519C119.638 56.0889 119.621 56.1316 119.615 56.1764C119.61 56.2212 119.615 56.2667 119.63 56.3092C121.162 60.4912 133.082 98.1139 65.2359 95.8146C65.199 95.8135 65.1623 95.8197 65.1278 95.8328C65.0933 95.8459 65.0618 95.8657 65.035 95.891C65.0081 95.9163 64.9866 95.9466 64.9715 95.9802C64.9564 96.0139 64.9481 96.0501 64.9471 96.087C64.9471 97.7293 64.9872 106.23 67.9231 111.686C67.9266 111.712 67.9266 111.739 67.9231 111.766C68.252 113.689 68.0675 113.769 68.3723 115.836C68.3804 115.885 68.4009 115.931 68.4317 115.97C68.4626 116.01 68.5028 116.04 68.5488 116.06C70.0809 116.597 82.9074 120.867 93.8006 116.517C94.4023 116.276 94.7552 113.416 95.3328 112.943C95.4399 112.889 95.5607 112.866 95.6804 112.879C95.8002 112.892 95.9135 112.939 96.0066 113.016C96.0066 113.016 96.5601 116.156 96.8087 116.276C97.6109 116.709 110.108 116.116 111.937 115.748C111.998 115.738 112.054 115.707 112.093 115.66C112.133 115.613 112.155 115.553 112.154 115.491C112.154 114.818 112.274 113.889 112.282 113.28C112.28 113.245 112.285 113.209 112.298 113.176C112.31 113.143 112.33 113.113 112.355 113.088C112.38 113.063 112.41 113.043 112.443 113.031C112.476 113.018 112.512 113.013 112.547 113.016C119.585 113.11 126.623 112.813 133.628 112.126C141.026 94.7093 145.405 76.1622 146.574 57.2786Z" fill="#ABB4DD"/>
<path d="M105.236 83.7301C105.236 83.7301 126.573 105.922 142.516 88.6251C142.516 88.6251 153.45 75.0331 128.554 63.531C128.554 63.531 158.41 65.8539 154.859 44.5537C154.859 44.5537 148.667 28.0279 126.098 33.8393C126.098 33.8393 150.994 14.3154 132.113 2.68466C113.232 -8.94607 97.6756 20.81 97.0717 23.0204C97.0717 23.0204 142.186 43.3319 105.236 83.7301Z" fill="#871D6B"/>
<path d="M109.286 79.1645C109.286 79.1645 118.948 90.2648 128.216 89.6137C137.483 88.9627 137.878 80.7721 136.477 77.4525C135.076 74.1329 118.425 62.4459 118.425 62.4459C115.583 69.6638 109.286 79.1645 109.286 79.1645Z" fill="#D487B8"/>
<path d="M119.415 58.1858C119.415 58.1858 136.187 62.478 143.176 55.3646C150.165 48.2511 144.504 40.8161 141.276 39.6426C134.464 37.1508 116.396 40.3178 116.396 40.3178C119.914 45.4941 119.415 58.1858 119.415 58.1858Z" fill="#D487B8"/>
<path d="M113.868 36.6042C113.868 36.6042 127.064 28.8879 129.866 19.2506C132.62 9.77399 121.452 7.30637 118.232 8.48793C111.42 10.9957 101.323 25.3674 101.323 25.3674C103.457 26.1953 113.868 36.6042 113.868 36.6042Z" fill="#D487B8"/>
<path d="M69.8513 48.687H48.8087" stroke="#1D1D1B" stroke-width="2.93" stroke-miterlimit="10" stroke-linecap="round"/>
<path d="M49.643 49.348C49.643 51.9997 52.1845 54.1518 55.313 54.1518C58.4416 54.1518 60.9754 51.9997 60.9754 49.348" fill="#1D1D1B"/>
<path d="M104.83 48.687H83.787" stroke="#1D1D1B" stroke-width="2.93" stroke-miterlimit="10" stroke-linecap="round"/>
<path d="M85.0925 49.348C85.0925 51.9997 87.5259 54.1518 90.4999 54.1518C93.474 54.1518 95.9074 51.9997 95.9074 49.348" fill="#1D1D1B"/>
<path d="M76.935 78.3938C80.0153 78.3938 82.5124 74.605 82.5124 69.9313C82.5124 65.2577 80.0153 61.4689 76.935 61.4689C73.8547 61.4689 71.3577 65.2577 71.3577 69.9313C71.3577 74.605 73.8547 78.3938 76.935 78.3938Z" fill="#1D1D1B"/>
</g>
<defs>
<clipPath id="clip0_173_551">
<rect width="249" height="170" fill="white"/>
</clipPath>
</defs>
</svg>
