<svg width="310" height="212" viewBox="0 0 310 212" fill="none" xmlns="http://www.w3.org/2000/svg">
<g clip-path="url(#clip0_173_602)">
<path d="M62 105C62 105 35.5 132.62 15.7 111.1C15.7 111.1 2.12001 94.19 33.03 79.87C33 79.9 -3.99999 82.8 0.370007 56.3C0.370007 56.3 8.06001 35.74 36.08 42.97C36.08 42.97 5.16001 18.68 28.62 4.21002C52.08 -10.26 71.28 26.73 72 29.48C72 29.48 16.1 54.77 62 105Z" fill="#4E4E9C"/>
<path d="M65.76 30.34C65.76 30.34 55.24 12.41 43.84 10.89C32.44 9.37001 29.9 19.22 30.75 23.64C31.6 28.06 49.55 46.45 49.55 46.45C55.25 36.89 65.76 30.34 65.76 30.34Z" fill="#9A9ACC"/>
<path d="M45.83 54.17C45.83 54.17 26.93 45.5 16.72 50.79C6.51 56.08 10.07 65.61 13.3 68.79C16.53 71.97 41.56 74.21 41.56 74.21C41.8685 67.3402 43.3113 60.5688 45.83 54.17V54.17Z" fill="#9A9ACC"/>
<path d="M43 83.2C43 83.2 24.88 88.32 21.68 97.71C18.48 107.1 26.38 110.91 30.27 110.93C34.16 110.95 52.88 98 52.88 98C48.3594 94.0066 44.9546 88.9064 43 83.2V83.2Z" fill="#9A9ACC"/>
<path d="M65 106.75C68.62 108.86 74.71 110.86 81 111.75C81 111.75 79 127.66 84.54 139.62C84.54 139.62 85.68 166.62 96.65 167.87C107.62 169.12 111.04 159.19 118.43 140.76C118.43 140.76 119.18 140.5 119.43 140.87C119.68 141.24 123.6 162.49 131.52 163.25C139.44 164.01 139.28 151.63 139.59 140.76C139.59 140.76 165.02 140.66 170.4 138.93C170.4 138.93 168.54 158.93 180.61 160.93C192.68 162.93 191.8 137.59 191.8 137.59C191.8 137.59 197.46 137.59 199.09 137.34C199.09 137.34 198.81 161.66 213.89 161.43C228.97 161.2 234.67 138.05 234.52 101.8C234.52 101.8 276.2 125.11 220.76 179.32C220.76 179.32 205.13 200.95 252.44 210.9C252.44 210.9 286.08 218.9 302.91 180.09C318.42 144.31 300.75 116.28 300.75 116.28C300.75 116.28 291.56 95 276.35 87.49C269.65 84.2 269.47 83.49 235.03 84.89C235.03 84.89 208.6 71.26 189.72 71.62C189.72 71.62 165.72 68.22 149.41 69.28C149.41 69.28 151.74 44.15 121.33 29C121.33 29 100.69 16.09 73.69 26.44C66.007 29.414 59.1927 34.268 53.8712 40.5573C48.5497 46.8467 44.891 54.3705 43.23 62.44C41.25 71.68 36.05 89.88 65 106.75Z" fill="#CFC6E3"/>
<path d="M249.58 96.06C249.58 96.06 287.02 137.86 236.13 178.8C236.13 178.8 227.83 190.75 242.5 199.38C257.17 208.01 289.11 187.62 295.78 150.38C302.45 113.14 265.47 95.94 265.47 95.94C265.47 95.94 251.62 90.86 249.58 96.06Z" fill="#9A9ACC"/>
<path d="M81 111.7C81 111.7 80.15 120.9 80.86 124.25C81.5 127.25 130.61 133.25 147.16 112.55C147.16 112.55 130.76 106.31 132.39 103.47C132.4 103.47 94.74 116.24 81 111.7Z" fill="#9A9ACC"/>
<path d="M80.42 112.14C80.42 112.14 79.57 121.34 80.28 124.7C80.92 127.7 130.03 133.7 146.58 112.99C146.58 112.99 130.18 106.76 131.81 103.92C131.81 103.92 94.15 116.69 80.42 112.14Z" fill="#EB5842"/>
<path d="M181.82 71.68C181.92 69.93 170.74 70.68 148.56 70C148.504 69.9998 148.448 70.0132 148.398 70.0392C148.348 70.0651 148.305 70.1027 148.272 70.1489C148.24 70.195 148.219 70.2483 148.212 70.3042C148.204 70.3602 148.211 70.417 148.23 70.47C150.14 75.69 165 122.65 80.42 119.78C80.374 119.779 80.3283 119.786 80.2853 119.803C80.2423 119.819 80.203 119.844 80.1695 119.875C80.1361 119.907 80.1092 119.945 80.0904 119.987C80.0716 120.029 80.0613 120.074 80.06 120.12C80.06 122.17 80.11 132.78 83.77 139.59C83.7744 139.623 83.7744 139.657 83.77 139.69C84.18 142.09 83.95 142.19 84.33 144.77C84.3402 144.831 84.3656 144.889 84.4041 144.938C84.4426 144.987 84.4927 145.026 84.55 145.05C86.46 145.72 102.45 151.05 116.03 145.62C116.78 145.32 117.22 141.75 117.94 141.16C118.074 141.092 118.224 141.064 118.373 141.08C118.523 141.096 118.664 141.155 118.78 141.25C118.78 141.25 119.47 145.17 119.78 145.32C120.78 145.86 136.36 145.12 138.64 144.66C138.716 144.648 138.785 144.609 138.835 144.55C138.884 144.492 138.911 144.417 138.91 144.34C138.91 143.5 139.06 142.34 139.07 141.58C139.067 141.536 139.074 141.492 139.089 141.45C139.105 141.409 139.129 141.371 139.16 141.34C139.191 141.309 139.229 141.285 139.27 141.269C139.312 141.254 139.356 141.247 139.4 141.25C148.174 141.367 156.947 140.997 165.68 140.14C174.904 118.4 180.362 95.2502 181.82 71.68V71.68Z" fill="#EE6F4F"/>
<path d="M130.7 104.17C130.7 104.17 157.2 131.78 177 110.26C177 110.26 190.58 93.35 159.66 79.04C159.66 79.04 196.74 81.93 192.33 55.43C192.33 55.43 184.64 34.87 156.61 42.1C156.61 42.1 187.53 17.81 164.08 3.33998C140.63 -11.13 121.31 25.89 120.56 28.64C120.56 28.64 176.59 53.91 130.7 104.17Z" fill="#4E4E9C"/>
<path d="M135.73 98.49C135.73 98.49 147.73 112.3 159.24 111.49C170.75 110.68 171.24 100.49 169.5 96.36C167.76 92.23 147.08 77.69 147.08 77.69C143.55 86.67 135.73 98.49 135.73 98.49Z" fill="#9A9ACC"/>
<path d="M148.31 72.39C148.31 72.39 169.14 77.73 177.82 68.88C186.5 60.03 179.47 50.78 175.46 49.32C167 46.22 144.56 50.16 144.56 50.16C148.93 56.6 148.31 72.39 148.31 72.39Z" fill="#9A9ACC"/>
<path d="M141.42 45.54C141.42 45.54 157.81 35.94 161.29 23.95C164.71 12.16 150.84 9.08996 146.84 10.56C138.38 13.68 125.84 31.56 125.84 31.56C128.49 32.59 141.42 45.54 141.42 45.54Z" fill="#9A9ACC"/>
</g>
<g clip-path="url(#clip1_173_602)">
<path d="M120.34 82.58C124.963 82.58 128.71 80.8204 128.71 78.65C128.71 76.4795 124.963 74.72 120.34 74.72C115.717 74.72 111.97 76.4795 111.97 78.65C111.97 80.8204 115.717 82.58 120.34 82.58Z" fill="#EF7D7C"/>
<path d="M68.44 82.58C73.0626 82.58 76.81 80.8204 76.81 78.65C76.81 76.4795 73.0626 74.72 68.44 74.72C63.8174 74.72 60.07 76.4795 60.07 78.65C60.07 80.8204 63.8174 82.58 68.44 82.58Z" fill="#EF7D7C"/>
<path d="M69.88 71.76C75.8889 71.76 80.76 66.8889 80.76 60.88C80.76 54.8711 75.8889 50 69.88 50C63.8711 50 59 54.8711 59 60.88C59 66.8889 63.8711 71.76 69.88 71.76Z" fill="#1D1D1B"/>
<path d="M116.09 72.38C122.099 72.38 126.97 67.5089 126.97 61.5C126.97 55.4911 122.099 50.62 116.09 50.62C110.081 50.62 105.21 55.4911 105.21 61.5C105.21 67.5089 110.081 72.38 116.09 72.38Z" fill="#1D1D1B"/>
<path d="M65.33 61.5C67.5005 61.5 69.26 59.7405 69.26 57.57C69.26 55.3995 67.5005 53.64 65.33 53.64C63.1595 53.64 61.4 55.3995 61.4 57.57C61.4 59.7405 63.1595 61.5 65.33 61.5Z" fill="white"/>
<path d="M71.03 65.03C72.245 65.03 73.23 64.045 73.23 62.83C73.23 61.615 72.245 60.63 71.03 60.63C69.815 60.63 68.83 61.615 68.83 62.83C68.83 64.045 69.815 65.03 71.03 65.03Z" fill="white"/>
<path d="M112.16 62.12C114.33 62.12 116.09 60.3605 116.09 58.19C116.09 56.0195 114.33 54.26 112.16 54.26C109.99 54.26 108.23 56.0195 108.23 58.19C108.23 60.3605 109.99 62.12 112.16 62.12Z" fill="white"/>
<path d="M117.85 65.64C119.065 65.64 120.05 64.655 120.05 63.44C120.05 62.225 119.065 61.24 117.85 61.24C116.635 61.24 115.65 62.225 115.65 63.44C115.65 64.655 116.635 65.64 117.85 65.64Z" fill="white"/>
<path d="M102.1 83.24C102.1 85.68 100.1 88.62 97.44 88.62C95.62 88.62 93.67 86.23 93.22 85.24C93.11 85.02 93.11 85.02 93.03 85.24C92.643 86.2227 91.9722 87.0679 91.1031 87.6681C90.2341 88.2682 89.2061 88.5961 88.15 88.61C85.52 88.61 83.82 85.8 83.82 83.36" stroke="#1D1D1B" stroke-width="1.6" stroke-miterlimit="10" stroke-linecap="round"/>
</g>
<defs>
<clipPath id="clip0_173_602">
<rect width="309.25" height="211.5" fill="white"/>
</clipPath>
<clipPath id="clip1_173_602">
<rect width="69.71" height="39.42" fill="white" transform="translate(59 50)"/>
</clipPath>
</defs>
</svg>
