<svg width="102" height="79" viewBox="0 0 102 79" fill="none" xmlns="http://www.w3.org/2000/svg">
<path d="M0.420001 42.14C0.420001 42.14 -0.429999 51.34 0.280001 54.7C0.920001 57.7 50.03 63.7 66.58 42.99C66.58 42.99 50.18 36.76 51.81 33.92C51.81 33.92 14.15 46.69 0.420001 42.14Z" fill="#E62A3E"/>
<path d="M101.82 1.68C101.92 -0.0699979 90.74 0.680002 68.56 2.10975e-06C68.5036 -0.000193684 68.448 0.0132411 68.3979 0.0391625C68.3478 0.065084 68.3048 0.102724 68.2723 0.148879C68.2399 0.195034 68.2192 0.248337 68.2118 0.304248C68.2044 0.36016 68.2107 0.417025 68.23 0.470002C70.14 5.69 85 52.65 0.420001 49.78C0.374034 49.7787 0.328255 49.7864 0.28528 49.8028C0.242305 49.8191 0.202977 49.8438 0.169544 49.8754C0.136111 49.907 0.109229 49.9448 0.0904328 49.9868C0.0716368 50.0288 0.061296 50.074 0.0600014 50.12C0.0600014 52.17 0.110001 62.78 3.77 69.59C3.77441 69.6232 3.77441 69.6568 3.77 69.69C4.18 72.09 3.95 72.19 4.33 74.77C4.34016 74.8314 4.36565 74.8893 4.4041 74.9382C4.44256 74.9872 4.49274 75.0256 4.55 75.05C6.46 75.72 22.45 81.05 36.03 75.62C36.78 75.32 37.22 71.75 37.94 71.16C38.0735 71.0915 38.2242 71.0635 38.3734 71.0795C38.5227 71.0955 38.664 71.1548 38.78 71.25C38.78 71.25 39.47 75.17 39.78 75.32C40.78 75.86 56.36 75.12 58.64 74.66C58.7159 74.648 58.785 74.609 58.8346 74.5503C58.8842 74.4915 58.9109 74.4169 58.91 74.34C58.91 73.5 59.06 72.34 59.07 71.58C59.0671 71.5359 59.0736 71.4917 59.0891 71.4503C59.1046 71.4089 59.1289 71.3714 59.1601 71.3401C59.1914 71.3089 59.2289 71.2846 59.2703 71.2691C59.3117 71.2536 59.3559 71.247 59.4 71.25C68.1738 71.3675 76.9474 70.9969 85.68 70.14C94.9036 48.4005 100.362 25.2502 101.82 1.68Z" fill="#E83C41"/>
</svg>
